<?xml version="1.0" standalone="no"?>
<!DOCTYPE svg PUBLIC "-//W3C//DTD SVG 20010904//EN"
 "http://www.w3.org/TR/2001/REC-SVG-20010904/DTD/svg10.dtd">
<svg version="1.0" xmlns="http://www.w3.org/2000/svg"
 width="700.000000pt" height="700.000000pt" viewBox="0 0 700.000000 700.000000"
 preserveAspectRatio="xMidYMid meet">
<metadata>
Created by potrace 1.11, written by Peter Selinger 2001-2013
</metadata>
<g transform="translate(0.000000,700.000000) scale(0.100000,-0.100000)"
fill="#000000" stroke="none">
<path d="M3292 5731 c-55 -9 -86 -40 -86 -85 0 -24 15 -57 53 -114 34 -52 55
-96 58 -122 5 -38 3 -44 -39 -84 -30 -29 -106 -74 -235 -140 -230 -117 -321
-176 -403 -258 -114 -115 -166 -231 -177 -390 l-6 -87 -38 -27 c-60 -41 -124
-116 -161 -185 -31 -61 -33 -69 -32 -169 0 -83 5 -117 22 -165 12 -32 22 -60
22 -62 0 -1 -19 -12 -41 -24 -23 -11 -63 -40 -88 -64 -27 -25 -67 -49 -97 -59
-107 -35 -184 -105 -184 -168 0 -29 331 -1715 356 -1812 9 -33 31 -91 51 -130
48 -96 172 -220 263 -263 135 -63 118 -62 975 -65 732 -3 784 -2 845 15 209
59 376 224 433 427 27 97 357 1777 357 1818 0 70 -50 124 -155 167 l-60 24 -6
98 c-16 243 -159 416 -381 462 l-56 12 15 47 c21 67 13 193 -16 254 -44 92
-167 187 -294 228 -29 9 -37 16 -32 29 43 110 52 280 21 386 -75 253 -302 444
-595 499 -85 16 -212 19 -289 7z m312 -197 c143 -35 304 -158 359 -276 54
-115 60 -237 17 -350 l-22 -56 -72 -7 c-275 -26 -807 -145 -1115 -250 -58 -19
-108 -35 -112 -35 -11 0 10 69 38 125 33 63 130 160 218 218 39 24 133 77 210
117 252 132 345 205 381 298 21 52 15 130 -15 197 l-20 46 37 -6 c20 -4 63
-13 96 -21z m548 -904 c83 -28 141 -76 163 -135 21 -52 15 -96 -22 -171 l-25
-51 -196 -33 c-411 -67 -1121 -209 -1455 -290 -88 -22 -162 -38 -163 -37 -20
26 -38 86 -41 142 -4 60 -1 76 20 115 31 57 121 131 214 175 194 93 719 236
1083 295 159 26 330 22 422 -10z m375 -545 c165 -49 252 -242 195 -432 -20
-66 -82 -174 -114 -201 -18 -14 -245 -44 -483 -64 -212 -17 -1046 -17 -1245 0
-198 17 -385 39 -505 58 -110 18 -131 32 -142 97 -7 48 34 92 124 134 84 39
180 62 693 172 757 161 1226 247 1371 250 30 0 78 -6 106 -14z m-2331 -795
c95 -24 290 -57 429 -70 60 -6 110 -12 111 -13 2 -1 57 -385 124 -852 66 -468
123 -862 126 -877 l6 -28 -124 0 c-169 0 -242 22 -335 97 -55 44 -95 103 -122
178 -16 46 -321 1555 -321 1589 0 5 7 5 16 2 9 -4 50 -15 90 -26z m2564 -754
c-83 -421 -157 -785 -166 -808 -34 -97 -112 -186 -201 -231 -69 -35 -138 -47
-269 -47 -105 0 -115 2 -110 18 2 9 60 405 127 879 l122 862 66 6 c193 19 393
52 526 88 28 8 51 10 53 6 2 -5 -65 -352 -148 -773z m-1260 646 c168 0 364 3
435 7 l130 6 -111 -785 c-61 -432 -117 -824 -124 -872 l-12 -88 -317 0 -317 0
-122 868 c-68 477 -123 869 -122 872 0 3 57 2 127 -2 71 -3 265 -6 433 -6z"/>
</g>
</svg>
